<?xml version="1.0"?>
<svg xmlns="http://www.w3.org/2000/svg" id="Layer_1" enable-background="new 0 0 511.097 511.097" height="512px" viewBox="0 0 511.097 511.097" width="512px"><g><g><circle cx="95.587" cy="58.089" r="38.909" data-original="#000000" class="active-path" data-old_color="#000000" fill="#9D3636" fill="#3639AE" /><path d="m145.98 109.401c-10.011 0-89.059 0-100.787 0-24.797 0-45.07 19.83-45.193 44.299v137.924c0 10.369 8.405 18.774 18.773 18.774s18.773-8.405 18.773-18.774v-137.829c.019-3.583 4.035-6.847 8.018-6.847v322.44c0 12.442 10.188 22.529 22.63 22.529s22.528-10.086 22.528-22.529v-180.073h9.728v180.073c0 12.442 10.086 22.529 22.528 22.529s22.624-10.086 22.624-22.529c0-.153 0-322.331 0-322.44 3.946 0 7.933 3.263 7.951 6.752v137.924c0 10.369 8.405 18.774 18.773 18.774s18.773-8.405 18.773-18.774v-138.019c-.12-24.374-20.362-44.204-45.119-44.204z" data-original="#000000" class="active-path" data-old_color="#000000" fill="#9D3636" fill="#3639AE" /><circle cx="415.582" cy="58.089" r="38.909" data-original="#000000" class="active-path" data-old_color="#000000" fill="#9D3636" fill="#3639AE" /><path d="m465.977 109.401c-10.011 0-89.06 0-100.788 0-24.797 0-45.07 19.83-45.193 44.299v137.924c0 10.369 8.405 18.774 18.773 18.774s18.773-8.405 18.773-18.774v-137.829c.019-3.583 4.035-6.847 8.018-6.847v322.44c0 12.442 10.188 22.529 22.63 22.529s22.528-10.086 22.528-22.529v-180.073h9.728v180.073c0 12.442 10.086 22.529 22.528 22.529s21.624-10.086 21.624-22.529c0-.153 0-322.331 0-322.44 3.945 0 8.932 3.263 8.951 6.752v137.924c0 10.369 8.405 18.774 18.773 18.774s18.773-8.405 18.773-18.774v-138.019c-.121-24.374-20.363-44.204-45.118-44.204z" data-original="#000000" class="active-path" data-old_color="#000000" fill="#9D3636" fill="#3639AE" /><path d="m318.975 77.467-23.836-18.567c-2.499-1.947-6.143-.166-6.143 3.001v8.567h-70.554v-8.567c0-3.167-3.644-4.948-6.143-3.001l-23.837 18.567c-1.956 1.523-1.956 4.48 0 6.003l23.837 18.567c2.499 1.946 6.143.166 6.143-3.002v-8.567h70.554v8.567c0 3.167 3.644 4.948 6.143 3.002l23.837-18.567c1.955-1.523 1.955-4.48-.001-6.003z" data-original="#000000" class="active-path" data-old_color="#000000" fill="#9D3636" fill="#3639AE" /></g></g> </svg>
